# xmcd CD database file
#
# Track frame offsets:
#	150
#	31795
#	63972
#	97327
#	121705
#	178207
#	200362
#	224212
#
# Disc length: 3304 seconds
#
# Revision: 0
# Processed by: cddbd v1.5.2PL0 Copyright (c) Steve Scherf et al.
# Submitted via: CDex 1.70beta2
#
DISCID=760ce608
DTITLE=Oscar Peterson - Oscar Peterson and Dizzy Gillespie
DYEAR=1975
DGENRE=Jazz
TTITLE0=Caravan
TTITLE1=Mozambique
TTITLE2=Autumn Leaves
TTITLE3=Close Your Eyes
TTITLE4=Blues For Bird
TTITLE5=Dizzy Atmosphere
TTITLE6=Alone Together
TTITLE7=Con Alma
EXTD=YEAR: 1975
EXTT0=
EXTT1=
EXTT2=
EXTT3=
EXTT4=
EXTT5=
EXTT6=
EXTT7=
PLAYORDER=
